<svg id="Layer_1" enable-background="new 0 0 512 512" height="512" viewBox="0 0 512 512" width="512" xmlns="http://www.w3.org/2000/svg"><g><path d="m256.035 504.5c-.08-.02-.17-.03-.25-.05-206.67-42.53-268.96-175.92-242.51-443.87 0 0 146.1 52.88 242.76-53.08 69.99 76.72 165.89 70.17 213.49 60.72 18.14-3.61 29.27-7.64 29.27-7.64 26.459 268.06-35.891 401.45-242.76 443.92z" fill="#6cf4cd"/><path d="m498.794 60.58c26.46 268.06-35.89 401.45-242.76 443.92-.08-.02-.17-.03-.25-.05 181.26-49.18 237.04-186.33 213.74-436.23 18.14-3.61 29.27-7.64 29.27-7.64z" fill="#36ddbd"/><path d="m453.314 121.4c-9.94 1.19-20.73 2.02-32.23 2.29-2.45.06-4.93.09-7.45.09-59.99-.03-113.63-16.92-157.6-49.27-43.97 32.35-97.61 49.24-157.6 49.27-14.29.01-27.63-.94-39.68-2.38-2.15 41.46-1.5 77.91 1.92 110.42 4.77 45.29 14.81 81.91 30.69 111.95 15.17 28.71 35.84 51.4 63.18 69.35 26.93 17.68 60.21 30.88 101.49 40.23 41.28-9.35 74.56-22.55 101.49-40.23 27.34-17.95 48.01-40.64 63.18-69.35 15.88-30.04 25.92-66.66 30.69-111.95 3.42-32.51 4.07-68.96 1.92-110.42z" fill="#edf8f9"/><path d="m453.314 121.4c-9.94 1.19-20.73 2.02-32.23 2.29 1.69 40.51 1.12 76.22-1.69 108.13-3.99 45.29-12.38 81.91-25.66 111.95-12.69 28.71-29.97 51.4-52.84 69.35-22.52 17.68-50.34 30.88-84.86 40.23 41.28-9.35 74.56-22.55 101.49-40.23 27.34-17.95 48.01-40.64 63.18-69.35 15.88-30.04 25.92-66.66 30.69-111.95 3.42-32.51 4.07-68.96 1.92-110.42z" fill="#daeeef"/><path d="m256.035 366.26c-5.53 0-10.69-.29-15.5-.85-85.7-9.85-62.16-103.28-52.6-135.34h136.2c10.099 33.86 35.789 136.19-68.1 136.19z" fill="#66f1ff"/><path d="m256.035 366.26c-5.53 0-10.69-.29-15.5-.85 85.7-9.85 62.16-103.28 52.6-135.34h31c10.099 33.86 35.789 136.19-68.1 136.19z" fill="#66d4ff"/><circle cx="256.035" cy="287.165" fill="#fff" r="15"/></g><g><path d="m506.284 59.845c-.228-2.304-1.506-4.373-3.464-5.607-1.958-1.235-4.376-1.496-6.553-.708-.353.127-35.759 12.747-82.449 12.747h-.134c-27.348-.014-53.039-4.33-76.362-12.827-29.034-10.578-54.519-27.739-75.745-51.005-1.422-1.557-3.434-2.445-5.543-2.445s-4.12.888-5.542 2.445c-21.83 23.929-48.149 41.387-78.224 51.889-23.937 8.359-50.291 12.358-78.304 11.907-4.12-.055-7.555 3.235-7.622 7.376-.068 4.142 3.235 7.554 7.377 7.622 45.657.755 110.155-9.75 162.315-62.832 21.727 22.116 47.309 38.627 76.151 49.136 24.971 9.097 52.388 13.718 81.49 13.733h.144c35.432 0 64.369-6.761 78.412-10.771 19.958 216.828-21.607 334.801-138.237 393.613-3.699 1.865-5.186 6.375-3.32 10.074 1.319 2.616 3.961 4.125 6.703 4.125 1.135 0 2.289-.259 3.371-.805 64.226-32.387 106.653-81.953 129.704-151.532 21.83-65.886 27.008-152.94 15.832-266.135z"/><path d="m322.843 477.768c-20.068 7.605-42.538 14.021-66.809 19.074-50.644-10.54-91.489-26.311-124.824-48.194-33.502-21.993-58.835-49.802-77.447-85.016-35.349-66.88-46.177-160.189-33.925-293.135 7.882 2.243 20.471 5.356 36.301 7.669 4.102.602 7.908-2.238 8.506-6.336.599-4.099-2.238-7.907-6.337-8.506-25.478-3.723-42.343-9.735-42.505-9.794-2.177-.788-4.596-.527-6.553.708-1.958 1.234-3.237 3.304-3.464 5.607-13.913 140.908-2.882 239.666 34.714 310.796 19.826 37.509 46.804 67.127 82.477 90.545 35.281 23.161 78.311 39.732 131.549 50.66.498.102 1.003.153 1.508.153s1.011-.051 1.508-.153c25.629-5.261 49.388-12.007 70.617-20.053 3.873-1.468 5.823-5.798 4.355-9.671-1.467-3.872-5.797-5.821-9.671-4.354z"/><path d="m454.445 182.91h.085c4.103 0 7.453-3.303 7.498-7.417.189-17.077-.215-35.408-1.204-54.485-.107-2.074-1.07-4.01-2.658-5.348-1.589-1.338-3.663-1.96-5.723-1.71-12.763 1.526-25.817 2.309-38.786 2.327-58.553-.03-110.089-16.115-153.178-47.807-2.644-1.944-6.245-1.944-8.889 0-43.089 31.692-94.625 47.777-153.182 47.807-12.683.027-25.75-.77-38.783-2.327-2.061-.247-4.134.373-5.723 1.71-1.588 1.338-2.551 3.274-2.658 5.348-2.175 41.974-1.537 78.478 1.95 111.599 4.872 46.255 15.18 83.764 31.516 114.67 15.781 29.856 37.275 53.444 65.711 72.112 27.748 18.216 61.752 31.718 103.956 41.277.545.124 1.101.186 1.657.186s1.111-.062 1.657-.186c42.204-9.559 76.208-23.061 103.956-41.277 28.436-18.667 49.93-42.255 65.711-72.112 16.335-30.906 26.644-68.415 31.516-114.67.63-5.985 1.173-12.179 1.615-18.41.293-4.132-2.819-7.719-6.951-8.012-4.119-.304-7.72 2.818-8.013 6.95-.43 6.063-.959 12.085-1.571 17.901-4.668 44.319-14.434 80.049-29.859 109.232-14.567 27.56-34.416 49.339-60.681 66.582-25.86 16.977-57.73 29.679-97.38 38.809-39.649-9.129-71.519-21.832-97.38-38.809-26.265-17.242-46.114-39.021-60.681-66.582-15.425-29.184-25.192-64.914-29.859-109.232-3.184-30.241-3.931-63.463-2.268-101.33 10.955 1.054 21.861 1.564 32.573 1.57 59.825-.031 112.823-16.018 157.615-47.527 44.792 31.509 97.79 47.496 157.629 47.527 10.868-.015 21.786-.543 32.558-1.573.695 15.918.966 31.231.807 45.623-.046 4.143 3.274 7.538 7.417 7.584z"/><path d="m256.034 326.382c4.143 0 7.501-3.358 7.501-7.5v-10.502c8.731-3.095 15.002-11.436 15.002-21.215 0-12.407-10.094-22.5-22.502-22.5s-22.502 10.093-22.502 22.5c0 9.778 6.27 18.119 15.002 21.215v10.502c-.001 4.142 3.357 7.5 7.499 7.5zm0-46.716c4.136 0 7.501 3.364 7.501 7.5s-3.365 7.5-7.501 7.5-7.501-3.364-7.501-7.5 3.365-7.5 7.501-7.5z"/><path d="m326.763 344.873c18.699-25.089 20.234-64.437 4.564-116.95-.948-3.178-3.871-5.355-7.188-5.355h-20.6v-28.696c0-26.191-21.311-47.5-47.505-47.5s-47.505 21.309-47.505 47.5v28.696h-20.6c-3.317 0-6.239 2.178-7.188 5.356-8.998 30.154-12.307 56.327-9.837 77.792.474 4.115 4.198 7.071 8.309 6.593 4.115-.473 7.068-4.193 6.594-8.308-2.093-18.195.518-40.523 7.762-66.433h124.931c12.413 44.423 11.133 78.352-3.766 98.342-11.302 15.165-31.051 22.854-58.7 22.854-29.312 0-49.729-8.653-60.683-25.72-2.238-3.486-6.877-4.5-10.364-2.261-3.487 2.237-4.499 6.877-2.261 10.363 13.893 21.644 38.557 32.618 73.309 32.618 32.645-.001 56.441-9.721 70.728-28.891zm-38.225-122.306h-65.007v-28.696c0-17.92 14.581-32.5 32.504-32.5s32.504 14.58 32.504 32.5v28.696z"/><circle cx="92.017" cy="156.279" r="7.5"/><circle cx="256.034" cy="117.87" r="7.5"/><circle cx="256.034" cy="416.89" r="7.5"/><circle cx="420.052" cy="156.28" r="7.5"/></g></svg>